<svg id="contact" xmlns="http://www.w3.org/2000/svg" viewBox="0 0 15.99 15.73"><defs><style>.cls-1{fill:#fff;}</style></defs><path id="Path_40" data-name="Path 40" class="cls-1" d="M16,8H14.76A6.77,6.77,0,1,0,1.23,8H0A8,8,0,0,1,16,8Z" transform="translate(0 -0.26)"/><path id="Path_41" data-name="Path 41" class="cls-1" d="M13.53,16H12.3V8A4.31,4.31,0,0,0,3.69,8h0v8H2.46V8A5.54,5.54,0,0,1,13.53,8Z" transform="translate(0 -0.26)"/><path id="Path_42" data-name="Path 42" class="cls-1" d="M11.07,11.07H4.92V8a3.08,3.08,0,0,1,6.15,0h0ZM6.15,9.84H9.84V8A1.85,1.85,0,0,0,6.15,8Z" transform="translate(0 -0.26)"/></svg>