<?xml version="1.0" encoding="utf-8"?>
<!-- Generator: Adobe Illustrator 24.3.0, SVG Export Plug-In . SVG Version: 6.00 Build 0)  -->
<svg version="1.1" id="Layer_1" xmlns="http://www.w3.org/2000/svg" xmlns:xlink="http://www.w3.org/1999/xlink" x="0px" y="0px"
	 viewBox="0 0 16 15.6" style="enable-background:new 0 0 16 15.6;" xml:space="preserve">
<style type="text/css">
	.st0{fill:#F7F7F7;}
</style>
<path id="github" class="st0" d="M8,0C3.6,0,0,3.6,0,8c0,3.4,2.2,6.5,5.4,7.6C5.9,15.7,6,15.4,6,15.2c0-0.2,0-0.7,0-1.4
	c-2.2,0.5-2.7-1.1-2.7-1.1c-0.1-0.5-0.5-0.9-0.9-1.2c-0.7-0.5,0.1-0.5,0.1-0.5c0.5,0.1,1,0.4,1.2,0.8c0.5,0.8,1.5,1.1,2.3,0.7
	c0,0,0,0,0,0c0-0.4,0.2-0.8,0.5-1.1c-1.8-0.2-3.6-0.9-3.6-4c0-0.8,0.3-1.6,0.8-2.1C3.5,4.7,3.5,4,3.8,3.3c0,0,0.7-0.2,2.2,0.8
	c1.3-0.4,2.7-0.4,4,0c1.5-1,2.2-0.8,2.2-0.8c0.3,0.7,0.3,1.4,0.1,2.1c0.5,0.6,0.8,1.4,0.8,2.1c0,3.1-1.9,3.7-3.6,3.9
	C9.8,11.9,10,12.5,10,13c0,1.1,0,1.9,0,2.2c0,0.2,0.1,0.5,0.5,0.4c4.2-1.4,6.5-5.9,5.1-10.1C14.5,2.2,11.5,0,8,0"/>
</svg>
