<svg id="Layer_1" data-name="Layer 1" xmlns="http://www.w3.org/2000/svg" viewBox="0 0 17.63 12.34"><defs><style>.cls-1{fill:#fff;}</style></defs><g id="menuleft"><path id="Path_6" data-name="Path 6" class="cls-1" d="M0,.88A.87.87,0,0,1,.88,0H7.94a.88.88,0,0,1,.88.88.88.88,0,0,1-.88.87H.88A.87.87,0,0,1,0,.88Z" transform="translate(0 0)"/><path id="Path_7" data-name="Path 7" class="cls-1" d="M0,6.17a.88.88,0,0,1,.88-.88H16.75a.88.88,0,0,1,0,1.76H.88A.87.87,0,0,1,0,6.17Z" transform="translate(0 0)"/><path id="Path_8" data-name="Path 8" class="cls-1" d="M.88,10.59a.88.88,0,1,0,0,1.75H11.47a.88.88,0,0,0,0-1.75Z" transform="translate(0 0)"/></g></svg>