<svg id="peace" xmlns="http://www.w3.org/2000/svg" viewBox="0 0 7.99 11.71"><defs><style>.cls-1{fill:#fff;}</style></defs><path id="Path_9" data-name="Path 9" class="cls-1" d="M8,6.6a1.91,1.91,0,0,0-.6-1.31A1.43,1.43,0,0,0,6.66,5,1.48,1.48,0,0,0,5.6,4.29c.25-1,.7-2.51.73-2.65A1.2,1.2,0,0,0,6.17.54,1.32,1.32,0,0,0,5.1,0h0A1.2,1.2,0,0,0,3.93.87h0l-.7,2.34-.66-2a1.24,1.24,0,0,0-1.21-1,1.34,1.34,0,0,0-1,.5A1.24,1.24,0,0,0,.09,1.82l.8,3.35a1.5,1.5,0,0,0-.46.33A1.83,1.83,0,0,0,0,6.58c-.06.87.71,2.09,1.48,3.17l.06.09L1.67,11a.81.81,0,0,0,.8.73H5.73a.8.8,0,0,0,.8-.74l.1-1,0,0A5.67,5.67,0,0,0,8,6.6ZM6.11,9.83,6,10.93a.26.26,0,0,1-.27.24H2.47a.26.26,0,0,1-.26-.24L2.08,9.72A.29.29,0,0,0,2,9.59C1.78,9.23.48,7.51.54,6.63a1,1,0,0,1,.74-1,.28.28,0,0,0,.2-.32L.62,1.7A.72.72,0,0,1,1.13.81a.85.85,0,0,1,.23,0,.72.72,0,0,1,.7.57l.8,2.48a.39.39,0,0,0,.51.24.4.4,0,0,0,.24-.25L4.45,1a.68.68,0,0,1,.66-.5.71.71,0,0,1,.75.67.8.8,0,0,1,0,.27s-.6,2.09-.83,3a.28.28,0,0,0,.19.33h.2a1,1,0,0,1,.88.52.25.25,0,0,0,.23.14c.28,0,.87.17,1,1.17s-1,2.7-1.29,3A.19.19,0,0,0,6.11,9.83Z" transform="translate(0 0)"/></svg>