<svg id="Layer_1" data-name="Layer 1" xmlns="http://www.w3.org/2000/svg" viewBox="0 0 15.99 15.75"><defs><style>.cls-1{fill:#fff;}</style></defs><path id="web" class="cls-1" d="M8,0a8,8,0,0,1,3.5.8c.16.08.33.16.5.26l-.73.64L10.13.57,8.25,2.23,7.14,1,3.67,4.12,5.89,6.54,5,7.29,7.21,9.72l-.87.75,3.14,3.44,1.86-1.68L13,14a9.12,9.12,0,0,1-1,.7,8.05,8.05,0,0,1-3.93,1A7.94,7.94,0,0,1,0,7.87,7.92,7.92,0,0,1,8,0ZM6.5,7.39,8.4,5.7l1.7,1.88L8.2,9.27Zm1.36,3.24,1.88-1.7,1.72,1.88L9.56,12.5ZM5.14,4.18,7,2.5l1.7,1.88L6.84,6.06Zm3.49-.9L10,2l1.28,1.4L9.9,4.69Zm2.52,5.79,1.42-1.26,1.28,1.41-1.42,1.26Zm1.25,2.84,1.41-1.26,1.28,1.4-1.41,1.28ZM13,5.41l.94-.84.85.93-.94.85ZM11.76,2.63l.94-.85.86,1-1,.84ZM14.18,8.2l.94-.84.87.93-1,.84ZM9.94,6.11l1.41-1.27,1.28,1.4L11.21,7.51Z" transform="translate(0 0)"/></svg>