<svg xmlns="http://www.w3.org/2000/svg" width="172.659" height="247.953" viewBox="0 0 172.659 247.953">
  <path id="app_splash_logo" d="M-1951.769,247.133a2.7,2.7,0,0,1-.82-1.98v-9.8a8.783,8.783,0,0,1-7.72,4.521,8.219,8.219,0,0,1-3.8-.88,9.3,9.3,0,0,1-2.96-2.381,11.079,11.079,0,0,1-1.92-3.46,12.474,12.474,0,0,1-.68-4.12,11.406,11.406,0,0,1,.76-4.16,11,11,0,0,1,2.1-3.44,10.026,10.026,0,0,1,3.14-2.34,8.883,8.883,0,0,1,3.88-.86,8.467,8.467,0,0,1,4.441,1.2,9.083,9.083,0,0,1,3.16,3.119v-3.96h3.119v24.92q0,1.241,1.12,1.28v3.04a15.138,15.138,0,0,1-1.88.12A2.651,2.651,0,0,1-1951.769,247.133Zm-10.1-25.2a7.3,7.3,0,0,0-2.22,1.76,8.162,8.162,0,0,0-1.46,2.52,8.376,8.376,0,0,0-.52,2.9,8.6,8.6,0,0,0,.52,2.98,7.637,7.637,0,0,0,1.44,2.461,6.956,6.956,0,0,0,2.2,1.66,6.339,6.339,0,0,0,2.8.62,5.978,5.978,0,0,0,3.86-1.3,10.607,10.607,0,0,0,2.66-3.18v-6a5.273,5.273,0,0,0-.84-1.939,6.861,6.861,0,0,0-1.54-1.62,8.313,8.313,0,0,0-1.96-1.1,5.67,5.67,0,0,0-2.1-.42A6.1,6.1,0,0,0-1961.869,221.933Zm107.52,17.08a10.221,10.221,0,0,1-3.361-2.34,10.675,10.675,0,0,1-2.18-3.46,11.3,11.3,0,0,1-.78-4.18,11.145,11.145,0,0,1,.78-4.16,10.548,10.548,0,0,1,2.2-3.44,10.419,10.419,0,0,1,3.38-2.34,10.637,10.637,0,0,1,4.32-.86,10.288,10.288,0,0,1,4.3.88,10.232,10.232,0,0,1,3.3,2.34,10.335,10.335,0,0,1,2.1,3.4,11.187,11.187,0,0,1,.74,4.019c0,.293-.006.561-.02.8a4.2,4.2,0,0,1-.06.561h-17.32a8.09,8.09,0,0,0,.72,2.84,7.31,7.31,0,0,0,1.56,2.2,7.241,7.241,0,0,0,2.18,1.44,6.517,6.517,0,0,0,2.58.519,6.865,6.865,0,0,0,1.88-.26,8.143,8.143,0,0,0,1.72-.7,5.96,5.96,0,0,0,1.42-1.08,4.414,4.414,0,0,0,.94-1.44l3.04.84a7.681,7.681,0,0,1-1.42,2.12,9.419,9.419,0,0,1-2.08,1.66,10.709,10.709,0,0,1-2.62,1.1,11.134,11.134,0,0,1-3,.4A10.637,10.637,0,0,1-1854.348,239.013Zm1.72-17.64a6.773,6.773,0,0,0-2.18,1.4,7.06,7.06,0,0,0-1.52,2.139,7.863,7.863,0,0,0-.7,2.721h14.16a7.532,7.532,0,0,0-.74-2.741,7.333,7.333,0,0,0-1.56-2.14,6.991,6.991,0,0,0-2.18-1.38,7,7,0,0,0-2.641-.5A7,7,0,0,0-1852.628,221.373Zm-89.28,16.3q-1.681-2.2-1.68-6.56v-12.52h3.52v11.84q0,6.4,4.441,6.4a6.785,6.785,0,0,0,4.06-1.38,8.145,8.145,0,0,0,2.82-3.78V218.593h3.52v16.56q0,1.241,1.12,1.28v3.04c-.4.053-.714.087-.94.1s-.446.021-.66.021a2.533,2.533,0,0,1-1.741-.62,2.109,2.109,0,0,1-.74-1.54l-.08-2.441a9.681,9.681,0,0,1-3.68,3.621,10.163,10.163,0,0,1-5,1.26A5.852,5.852,0,0,1-1941.908,237.673Zm72.46.92a4.336,4.336,0,0,1-1.18-3.24V210.273h3.52v23.8a2.552,2.552,0,0,0,.62,1.82,2.271,2.271,0,0,0,1.74.661,4.665,4.665,0,0,0,1.04-.14,8.3,8.3,0,0,0,1.12-.34l.56,2.84a11.435,11.435,0,0,1-2.08.6,11.017,11.017,0,0,1-2.12.239A4.392,4.392,0,0,1-1869.448,238.593Zm-22.62.88v-2.28l13.36-16.04h-13v-2.561h16.76v2.281l-13.28,16.04h13.32v2.56Zm-19.721,0v-2.28l13.36-16.04h-13v-2.561h16.761v2.281l-13.28,16.04h13.32v2.56Zm-7.559,0v-20.88h3.52v20.88Zm0-24.8v-4.4h3.52v4.4Zm16.034-35.5h-11.073l-2.249-1.073a12.909,12.909,0,0,1-7.544-11.524l-.174-2.941-2.007-1.868a13.774,13.774,0,0,1-3.149-4.153l-1.141-2.284-.243-10.243c-.138-5.605-.346-10.866-.449-11.7a20.885,20.885,0,0,0-1.558-4.153c-1.28-2.526-2.11-3.564-9.031-11.282a51.635,51.635,0,0,1-12.457-25.745c-1.142-6.782-.761-18.132.692-20.139a2.679,2.679,0,0,1,3.84-.347c.623.623.727,1,.554,2.354-.1.9-.311,4.222-.416,7.405-.276,6.782.242,10.8,2.111,16.437a46.41,46.41,0,0,0,10.416,17.51c6.955,7.647,8.893,10.381,10.346,14.741l.8,2.284h45.158l.554-2.076c1.21-4.326,3.114-7.337,8.443-13.289,4.6-5.121,7.2-8.754,9.309-13.011a45.324,45.324,0,0,0,4.775-20.9,44.664,44.664,0,0,0-5.087-21.593,46.656,46.656,0,0,0-25.988-22.874,46.548,46.548,0,0,0-29.9,0,47.606,47.606,0,0,0-25.4,21.559,37.2,37.2,0,0,1-2.146,3.564,2.4,2.4,0,0,1-3.495-.277c-.969-1.246-.934-1.833.45-4.568a53.26,53.26,0,0,1,27.891-24.881,61.29,61.29,0,0,1,12.007-2.838,51.323,51.323,0,0,1,51.319,28.168c3.91,7.925,5.155,12.976,5.432,21.973.139,5.467.069,7.024-.519,10.554-1.9,11.039-6.194,19.344-14.88,28.652-3.149,3.425-5.71,7.024-6.713,9.551-.726,1.834-.8,2.561-.969,13.531l-.173,11.626-1.142,2.284a13.755,13.755,0,0,1-3.148,4.153l-2.007,1.868-.174,2.941a12.909,12.909,0,0,1-7.544,11.524l-2.249,1.073Zm-15.745-12.389c.035,2.838,2.6,6.09,5.5,6.955,1.8.554,18.687.554,20.486,0,2.907-.865,5.467-4.118,5.5-6.955V165.5h-31.49Zm-6.574-14.188a10.183,10.183,0,0,0,2.353,5.053,9.912,9.912,0,0,0,2.318,1.73c1.35.761,1.661.761,17.648.761s16.3,0,17.648-.761a9.9,9.9,0,0,0,2.319-1.73,10.191,10.191,0,0,0,2.353-5.053v-.934h-3.425c-2.907,0-3.53-.1-4.325-.727a2.587,2.587,0,0,1-.208-3.772c.588-.588,1.142-.692,4.325-.692h3.633v-8.651h-44.639v8.651h13.668c13.219,0,13.7.035,14.361.692a2.406,2.406,0,0,1-.208,3.738l-.865.761h-26.957Zm78.257-3.359-11.812-11.812a3.58,3.58,0,0,1,0-5.062,3.58,3.58,0,0,1,5.063,0l11.812,11.812a3.58,3.58,0,0,1,0,5.063,3.566,3.566,0,0,1-2.531,1.048A3.569,3.569,0,0,1-1847.376,149.234Zm-117.651,0a3.58,3.58,0,0,1,0-5.062l11.813-11.812a3.579,3.579,0,0,1,5.062,0,3.579,3.579,0,0,1,0,5.063l-11.812,11.812a3.569,3.569,0,0,1-2.532,1.048A3.567,3.567,0,0,1-1965.028,149.234Zm57.508-36.679c-3.506,0-3.685-.258-16.9-14.88a92.844,92.844,0,0,1-6.4-7.613,8.254,8.254,0,0,1,9.725-11.626c2.283.657,3.148,1.453,8.789,7.717a60.746,60.746,0,0,0,4.671,4.948c.139,0,4.188-5.053,9-11.246,8.444-10.866,9.759-12.25,12.042-13.011a9.933,9.933,0,0,1,6.471.865,8.339,8.339,0,0,1,3.391,10.762c-.934,1.8-6.367,8.512-7.232,8.893a2.291,2.291,0,0,1-3.079-1.141c-.761-1.419-.485-2.042,2.525-5.848a30.46,30.46,0,0,0,3.046-4.395,2.95,2.95,0,0,0-4.464-3.565c-.484.416-5.122,6.16-10.312,12.839-5.156,6.679-9.759,12.284-10.174,12.492-1.592.727-2.422.035-8.478-6.644-6.3-6.99-7.336-7.959-8.375-7.959-1.972,0-3.772,2.353-3.149,4.083.311.83,16.956,19.344,17.822,19.828a4.272,4.272,0,0,0,2.872.1,82.261,82.261,0,0,0,5.952-7.2c2.976-3.807,5.64-7.163,5.952-7.405,1.558-1.246,4.533.554,4.049,2.457-.208.83-9.136,12.631-11.419,15.087a7.581,7.581,0,0,1-5.917,2.457Zm69.894-23.066a3.579,3.579,0,0,1-3.579-3.579,3.579,3.579,0,0,1,3.579-3.579h16.7a3.579,3.579,0,0,1,3.579,3.579,3.579,3.579,0,0,1-3.579,3.579Zm-148.8,0A3.579,3.579,0,0,1-1990,85.91a3.579,3.579,0,0,1,3.579-3.579h16.7a3.579,3.579,0,0,1,3.579,3.579,3.579,3.579,0,0,1-3.579,3.579Zm127.233-45.257a3.58,3.58,0,0,1,0-5.062l11.812-11.812a3.579,3.579,0,0,1,5.063,0,3.579,3.579,0,0,1,0,5.062l-11.812,11.813a3.569,3.569,0,0,1-2.532,1.049A3.565,3.565,0,0,1-1859.188,44.233Zm-94.027,0-11.812-11.812a3.579,3.579,0,0,1,0-5.062,3.579,3.579,0,0,1,5.063,0l11.812,11.812a3.579,3.579,0,0,1,0,5.063,3.567,3.567,0,0,1-2.531,1.049A3.565,3.565,0,0,1-1953.215,44.233Zm46.384-23.949V3.579A3.58,3.58,0,0,1-1903.252,0a3.58,3.58,0,0,1,3.58,3.579v16.7a3.58,3.58,0,0,1-3.58,3.58A3.58,3.58,0,0,1-1906.831,20.284Z" transform="translate(1990)" fill="#fff"/>
</svg>
