<svg xmlns="http://www.w3.org/2000/svg" width="106.562" height="110.58" viewBox="0 0 106.562 110.58">
  <g id="bulb" transform="translate(-115.149 -330.921)">
    <g id="Group_1" data-name="Group 1" transform="translate(115.149 330.921)">
      <g id="lightbulb" transform="translate(21.566 19.125)">
        <path id="Path_4" data-name="Path 4" d="M136.1-428.545a37.815,37.815,0,0,0-7.411,1.751,32.871,32.871,0,0,0-17.214,15.356c-.854,1.687-.876,2.05-.278,2.819a1.479,1.479,0,0,0,2.157.171,22.979,22.979,0,0,0,1.324-2.2,29.383,29.383,0,0,1,15.676-13.305,28.731,28.731,0,0,1,18.452,0,28.794,28.794,0,0,1,16.039,14.117,27.565,27.565,0,0,1,3.139,13.327,27.977,27.977,0,0,1-2.947,12.9,34.4,34.4,0,0,1-5.745,8.03c-3.289,3.673-4.464,5.531-5.211,8.2l-.342,1.281H125.873l-.491-1.41c-.9-2.691-2.093-4.378-6.386-9.1a28.643,28.643,0,0,1-6.428-10.807,25.078,25.078,0,0,1-1.3-10.145c.064-1.965.192-4.015.256-4.57.107-.833.043-1.068-.342-1.452a1.654,1.654,0,0,0-2.371.214c-.9,1.239-1.132,8.244-.427,12.43a31.87,31.87,0,0,0,7.689,15.89c4.271,4.763,4.784,5.4,5.574,6.962a12.908,12.908,0,0,1,.961,2.563c.064.513.192,3.759.278,7.219l.15,6.322.7,1.41a8.492,8.492,0,0,0,1.943,2.563l1.239,1.153.107,1.815a7.968,7.968,0,0,0,4.656,7.112l1.388.662h13.668l1.388-.662a7.968,7.968,0,0,0,4.656-7.112l.107-1.815,1.239-1.153a8.492,8.492,0,0,0,1.943-2.563l.7-1.41.107-7.176c.107-6.77.149-7.219.6-8.351a22.436,22.436,0,0,1,4.143-5.895c5.361-5.745,8.009-10.871,9.184-17.684a27.571,27.571,0,0,0,.32-6.514,28.288,28.288,0,0,0-3.353-13.562A31.673,31.673,0,0,0,136.1-428.545Zm17.577,68.428v2.67h-2.242c-1.965,0-2.307.064-2.67.427a1.6,1.6,0,0,0,.128,2.328c.491.384.876.449,2.67.449h2.114v.577a6.288,6.288,0,0,1-1.452,3.118,6.1,6.1,0,0,1-1.431,1.068c-.833.47-1.025.47-10.892.47s-10.059,0-10.892-.47a6.1,6.1,0,0,1-1.431-1.068,6.288,6.288,0,0,1-1.452-3.118v-.577h16.637l.534-.47a1.484,1.484,0,0,0,.128-2.307c-.406-.406-.7-.427-8.863-.427h-8.436v-5.339H153.68Zm-4.058,15.206a5.055,5.055,0,0,1-3.4,4.293,78.091,78.091,0,0,1-12.643,0,5.055,5.055,0,0,1-3.4-4.293v-.79h19.435Z" transform="translate(-107.969 428.72)" fill="#781eff"/>
        <path id="Path_5" data-name="Path 5" d="M203.21-325.612c-1.41.47-2.221,1.324-7.432,8.03-2.969,3.823-5.467,6.941-5.553,6.941a37.391,37.391,0,0,1-2.883-3.054c-3.481-3.866-4.015-4.357-5.425-4.763a5.094,5.094,0,0,0-6,7.176,57.227,57.227,0,0,0,3.951,4.7c8.457,9.354,8.265,9.184,10.679,9.184a4.679,4.679,0,0,0,3.652-1.516,108.249,108.249,0,0,0,7.048-9.312c.3-1.175-1.538-2.285-2.5-1.516-.192.15-1.837,2.221-3.673,4.57a50.83,50.83,0,0,1-3.673,4.442,2.635,2.635,0,0,1-1.773-.064c-.534-.3-10.807-11.725-11-12.238a2.117,2.117,0,0,1,1.943-2.52c.641,0,1.281.6,5.168,4.912,3.737,4.122,4.25,4.549,5.232,4.1.256-.128,3.1-3.588,6.279-7.71,3.2-4.122,6.065-7.667,6.364-7.923a1.821,1.821,0,0,1,2.755,2.2,18.8,18.8,0,0,1-1.879,2.712c-1.858,2.349-2.029,2.734-1.559,3.609a1.415,1.415,0,0,0,1.9.7,32.043,32.043,0,0,0,4.464-5.489,5.147,5.147,0,0,0-2.093-6.642A6.13,6.13,0,0,0,203.21-325.612Z" transform="translate(-160.96 347.742)" fill="#781eff"/>
      </g>
      <rect id="Rectangle_1" data-name="Rectangle 1" width="4.419" height="14.728" rx="2.209" transform="translate(51.33)" fill="#781eff"/>
      <rect id="Rectangle_2" data-name="Rectangle 2" width="4.419" height="14.728" rx="2.209" transform="translate(89.587 15.323) rotate(45)" fill="#781eff"/>
      <rect id="Rectangle_3" data-name="Rectangle 3" width="4.419" height="14.728" rx="2.209" transform="translate(106.562 50.813) rotate(90)" fill="#781eff"/>
      <rect id="Rectangle_4" data-name="Rectangle 4" width="4.419" height="14.728" rx="2.209" transform="translate(79.173 83.252) rotate(-45)" fill="#781eff"/>
      <rect id="Rectangle_5" data-name="Rectangle 5" width="4.419" height="14.728" rx="2.209" transform="translate(27.389 25.738) rotate(135)" fill="#781eff"/>
      <rect id="Rectangle_6" data-name="Rectangle 6" width="4.419" height="14.728" rx="2.209" transform="translate(14.728 50.813) rotate(90)" fill="#781eff"/>
      <rect id="Rectangle_7" data-name="Rectangle 7" width="4.418" height="14.728" rx="2.209" transform="translate(16.975 93.667) rotate(-135)" fill="#781eff"/>
    </g>
  </g>
</svg>
